<?xml version="1.0" encoding="UTF-8" standalone="no"?>
<svg
   id="Layer_1"
   data-name="Layer 1"
   viewBox="0 0 1064.975402586 827.1476297107"
   version="1.1"
   sodipodi:docname="basic-human-body.svg"
   inkscape:version="1.4.2 (ebf0e940, 2025-05-08)"
   xmlns:inkscape="http://www.inkscape.org/namespaces/inkscape"
   xmlns:sodipodi="http://sodipodi.sourceforge.net/DTD/sodipodi-0.dtd"
   xmlns="http://www.w3.org/2000/svg"
   xmlns:svg="http://www.w3.org/2000/svg">
  <sodipodi:namedview
     id="namedview109"
     pagecolor="#ffffff"
     bordercolor="#000000"
     borderopacity="0.25"
     inkscape:showpageshadow="2"
     inkscape:pageopacity="0.0"
     inkscape:pagecheckerboard="0"
     inkscape:deskcolor="#d1d1d1"
     inkscape:zoom="0.42695159"
     inkscape:cx="436.81767"
     inkscape:cy="446.18641"
     inkscape:window-width="1520"
     inkscape:window-height="992"
     inkscape:window-x="58"
     inkscape:window-y="38"
     inkscape:window-maximized="0"
     inkscape:current-layer="g109" />
  <defs
     id="defs1">
    <style
       id="style1"> .cls-1 { fill: #cadee8; } .cls-1, .cls-2, .cls-3 { stroke-linejoin: round; stroke-width: 1.58538px; } .cls-1, .cls-3 { stroke: #7992a8; } .cls-4 { fill: #b2e04e; stroke: #82b70e; stroke-miterlimit: 10; stroke-width: 3.7132px; } .cls-2 { fill: none; stroke: #6978be; } .cls-3 { fill: #f4f6fa; } </style>
  </defs>
  <g
     id="g59"
     inkscape:label="anterior">
    <g
       id="g14"
       style="display:inline"
       inkscape:label="anterior-calves">
      <path
         class="cls-1"
         d="m 267.19576,701.71461 c -7.8872,8.3345 -17.9661,24.4218 -18.9352,30.818 -0.9691,6.3962 4.6658,13.5677 10.9581,16.4751 6.2923,2.9073 12.2157,0.3876 15.7471,-1.5506 3.5314,-1.9383 8.3692,-5.2333 9.7298,-17.8318 1.3607,-12.5986 1.5545,-14.343 5.8186,-17.8318 4.2642,-3.4889 5.2429,-8.7221 0.974,-15.8936 -4.269,-7.1715 -19.894,-6.7838 -24.2924,5.8147 z"
         id="path8" />
      <path
         class="cls-1"
         d="m 258.23986,561.38682 c 0,0 -11.7237,33.7247 -5.1337,59.8909 6.59,26.1662 18.2195,50.97569 18.8009,59.89159 0.5815,8.9159 -4.7113,20.5453 -4.7113,20.5453 0,0 5.4963,-15.5059 24.2924,-5.8147 l 1.1581,-6.9862 -20.7751,-115.31669 z"
         id="path9" />
      <path
         class="cls-1"
         d="m 289.79566,568.55092 c 0,0 7.5024,24.8162 5.5641,38.77149 -1.9382,13.95531 -6.8635,50.4588 -5.5641,57.8887 0.5582,3.1921 7.2162,11.7027 5.0334,17.7026 -1.1572,3.181 -3.3409,12.9862 -3.3409,12.9862 0,0 -3.9227,-2.7897 -9.0382,-2.8464 -5.1155,-0.0567 -8.6902,-85.7311 -3.7147,-108.60229 7.5582,-34.7433 11.0604,-15.9003 11.0604,-15.9003 z"
         id="path10" />
      <path
         class="cls-1"
         d="m 252.25876,525.81082 c 2.7074,8.0787 3.3671,37.1259 10.7324,47.7862 0,0 7.1715,-19.9638 0,-34.50061 -7.1714,-14.53679 -10.7324,-13.28559 -10.7324,-13.28559 z"
         id="path11" />
      <path
         class="cls-1"
         d="m 298.66356,537.27202 c 0,0 0.4435,13.9707 -3.8206,23.5326 -4.2642,9.562 -13.8261,15.3767 -13.8261,15.3767 0,0 -5.5641,-22.09591 3.6787,-32.95 9.2429,-10.8542 13.968,-5.9593 13.968,-5.9593 z"
         id="path12" />
      <path
         class="cls-3"
         d="m 283.71336,567.70632 c 0,0 4.9549,5.2446 3.9074,14.2898 -1.0476,9.0451 -7.121,34.3441 -7.0272,51.2987 0.2288,41.34909 4.102,59.98749 4.102,59.98749 0,0 -4.102,-0.5581 -7.3611,-0.2855 -2.4551,-5.0395 -5.428,-55.24409 -7.7539,-73.85119 -2.3259,-18.6071 -0.1501,-30.4303 -3.402,-34.9529 -3.252,-4.5225 -5.6009,-16.9134 -0.6792,-21.1199 4.9218,-4.20641 18.214,4.6335 18.214,4.6335 z"
         id="path13" />
      <path
         class="cls-3"
         d="m 263.00456,548.15572 c -1.3342,8.0206 2.4554,20.0782 5.0382,26.9919 1.9945,5.33879 11.3137,5.1635 12.9741,1.0337 2.3545,-5.8561 4.2772,-12.0236 3.4954,-23.3267 -0.7819,-11.3031 -4.8704,-24.995 -13.3152,-25 -8.4448,-0.005 -6.8582,12.2804 -8.1925,20.3011 z"
         id="path14" />
      <path
         class="cls-1"
         d="m 362.42466,701.71461 c 7.8872,8.3345 17.9661,24.4218 18.9352,30.818 0.9691,6.3962 -4.6658,13.5677 -10.9581,16.4751 -6.2922,2.9073 -12.2157,0.3876 -15.747,-1.5506 -3.5314,-1.9383 -8.3693,-5.2333 -9.7299,-17.8318 -1.3607,-12.5986 -1.5545,-14.343 -5.8186,-17.8318 -4.2641,-3.4889 -5.2429,-8.7221 -0.974,-15.8936 4.269,-7.1715 19.894,-6.7838 24.2924,5.8147 z"
         id="path1"
         style="display:inline" />
      <path
         class="cls-1"
         d="m 371.38056,561.38682 c 0,0 11.7237,33.7247 5.1337,59.8909 -6.59,26.1662 -18.2195,50.97569 -18.8009,59.89159 -0.5815,8.9159 4.7113,20.5453 4.7113,20.5453 0,0 -5.4963,-15.5059 -24.2924,-5.8147 l -1.1581,-6.9862 20.7751,-115.31669 z"
         id="path2"
         style="display:inline" />
      <path
         class="cls-1"
         d="m 339.82476,568.55092 c 0,0 -7.5024,24.8162 -5.5641,38.77149 1.9382,13.95531 6.8635,50.4588 5.5641,57.8887 -0.5582,3.1921 -7.2162,11.7027 -5.0334,17.7026 1.1573,3.181 3.3409,12.9862 3.3409,12.9862 0,0 3.9227,-2.7897 9.0382,-2.8464 5.1155,-0.0567 8.6902,-85.7311 3.7147,-108.60229 -7.5581,-34.7433 -11.0604,-15.9003 -11.0604,-15.9003 z"
         id="path3"
         style="display:inline" />
      <path
         class="cls-1"
         d="m 377.36166,525.81082 c -2.7074,8.0787 -3.3671,37.1259 -10.7324,47.7862 0,0 -7.1715,-19.9638 0,-34.50061 7.1715,-14.53679 10.7324,-13.28559 10.7324,-13.28559 z"
         id="path4"
         style="display:inline" />
      <path
         class="cls-1"
         d="m 330.95686,537.27202 c 0,0 -0.4435,13.9707 3.8206,23.5326 4.2642,9.562 13.8262,15.3767 13.8262,15.3767 0,0 5.564,-22.09591 -3.6788,-32.95 -9.2428,-10.8542 -13.968,-5.9593 -13.968,-5.9593 z"
         id="path5"
         style="display:inline" />
      <path
         class="cls-3"
         d="m 345.90706,567.70632 c 0,0 -4.9549,5.2446 -3.9073,14.2898 1.0476,9.0451 7.121,34.3441 7.0271,51.2987 -0.2288,41.34909 -4.102,59.98749 -4.102,59.98749 0,0 4.102,-0.5581 7.3611,-0.2855 2.4551,-5.0395 5.428,-55.24409 7.7539,-73.85119 2.3259,-18.6071 0.1501,-30.4303 3.4021,-34.9529 3.2519,-4.5225 5.6008,-16.9134 0.6791,-21.1199 -4.9217,-4.20641 -18.214,4.6335 -18.214,4.6335 z"
         id="path6"
         style="display:inline" />
      <path
         class="cls-3"
         d="m 366.61586,548.15572 c 1.3342,8.0206 -2.4554,20.0782 -5.0382,26.9919 -1.9945,5.33879 -11.3137,5.1635 -12.974,1.0337 -2.3546,-5.8561 -4.2773,-12.0236 -3.4954,-23.3267 0.7818,-11.3031 4.8704,-24.995 13.3151,-25 8.4448,-0.005 6.8582,12.2804 8.1925,20.3011 z"
         id="path7"
         style="display:inline" />
    </g>
    <path
       class="cls-1"
       d="M366.8839611092,370.4164113126s6.925,4.4465107825,6.1497,14.008510541-1.1629,21.5143994565-.9691,26.166199339c.1938,4.6517998825-13.6081-23.6763994019-13.6081-23.6763994019,0,0,1.1148-13.6440996553,8.4275-16.4983104781Z"
       id="path15" />
    <path
       class="cls-1"
       d="M262.3082611092,370.4164113126s-6.925,4.4465107825-6.1497,14.008510541c.7753,9.5619997584,1.1629,21.5143994565.9691,26.166199339s13.6081-23.6763994019,13.6081-23.6763994019c0,0-1.1148-13.6440996553-8.4275-16.4983104781Z"
       id="path16" />
    <g
       id="g27"
       style="display:inline"
       inkscape:label="anterior-quads">
      <g
         id="g21">
        <path
           class="cls-1"
           d="m 316.85716,434.92592 c 0,0 0.7429,27.8038 4.8132,43.5036 4.0703,15.6997 7.2755,32.7773 7.295,39.73389 0.0195,6.95661 48.3777,-98.15609 21.6074,-120.79289 -26.7704,-22.6368 -33.7156,37.5554 -33.7156,37.5554 z"
           id="path17" />
        <path
           class="cls-1"
           d="m 360.53046,384.09692 c 0,0 25.7664,30.1769 22.3002,78.2452 l -28.368,-71.5803 z"
           id="path18" />
        <path
           class="cls-1"
           d="m 379.75286,450.84192 c 0,0 11.772,32.8208 3.3986,56.855 -8.3734,24.0342 -11.981,36.82649 -14.3444,39.9277 -2.3634,3.1012 -9.3411,-3.295 -7.209,-15.8935 2.1321,-12.5986 18.1548,-80.8892 18.1548,-80.8892 z"
           id="path19" />
        <path
           class="cls-3"
           d="m 358.45646,386.91472 c 4.999,32.9201 23.2121,38.2132 21.4531,72.52 -1.7589,34.3069 -17.1448,66.2886 -18.3115,72.2964 -1.1667,6.0077 -6.0193,5.687 -7.1354,1.3567 -1.199,-4.6518 -16.1235,-61.2483 -7.9829,-90.90341 8.1406,-29.65509 4.093,-44.81389 4.093,-44.81389 0,0 2.7587,-11.73711 7.8837,-10.4558 z"
           id="path20" />
        <path
           class="cls-3"
           d="m 353.37596,528.79612 c 2.4074,10.1064 -0.1557,22.31729 -6.0456,23.8679 -5.89,1.5506 -19.4577,-4.4579 -18.2947,-32.5624 1.1629,-28.1044 12.8416,-63.3521 16.8873,-75.6741 4.0457,-12.3219 7.453,84.3686 7.453,84.3686 z"
           id="path21" />
      </g>
      <g
         id="g26">
        <path
           class="cls-1"
           d="m 312.33506,434.92592 c 0,0 -0.7429,27.8038 -4.8132,43.5036 -4.0703,15.6997 -7.2755,32.7773 -7.295,39.73389 -0.0195,6.95661 -48.3777,-98.15609 -21.6074,-120.79289 26.7703,-22.6368 33.7156,37.5554 33.7156,37.5554 z"
           id="path22" />
        <path
           class="cls-1"
           d="m 268.66176,384.09692 c 0,0 -25.7665,30.1769 -22.3002,78.2452 l 28.368,-71.5803 z"
           id="path23" />
        <path
           class="cls-1"
           d="m 249.43926,450.84192 c 0,0 -11.7719,32.8208 -3.3985,56.855 8.3733,24.0342 11.981,36.82649 14.3444,39.9277 2.3634,3.1012 9.341,-3.295 7.209,-15.8935 -2.1321,-12.5986 -18.1549,-80.8892 -18.1549,-80.8892 z"
           id="path24" />
        <path
           class="cls-3"
           d="m 270.73576,386.91472 c -4.999,32.9201 -23.2121,38.2132 -21.4531,72.52 1.7589,34.3069 17.1448,66.2886 18.3115,72.2964 1.1667,6.0077 6.0193,5.687 7.1354,1.3567 1.199,-4.6518 16.1234,-61.2483 7.9828,-90.90341 -8.1406,-29.65509 -4.0929,-44.81389 -4.0929,-44.81389 0,0 -2.7587,-11.73711 -7.8837,-10.4558 z"
           id="path25" />
        <path
           class="cls-3"
           d="m 275.81626,528.79612 c -2.4074,10.1064 0.1557,22.31729 6.0456,23.8679 5.89,1.5506 19.4576,-4.4579 18.2947,-32.5624 -1.163,-28.1044 -12.8416,-63.3521 -16.8873,-75.6741 -4.0457,-12.3219 -7.453,84.3686 -7.453,84.3686 z"
           id="path26" />
      </g>
    </g>
    <path
       class="cls-1"
       d="m 292.42676,182.33753 c 0,5.368 -30.0816,19.4356 -46.0809,35.5613 0,0 -1.2695,13.5344 -1.2695,49.66149 0,36.127 11.6479,43.793 15.3306,51.35209 3.6826,7.55911 5.4583,14.53681 3.989,19.38241 -1.4693,4.84559 -9.0252,27.6423 4.2501,45.8021 13.2753,18.1598 33.0707,42.84 37.6129,47.1041 4.5422,4.2642 8.3293,4.135 8.3293,4.135 0,0 3.7871,0.1292 8.3293,-4.135 4.5422,-4.2641 24.3375,-28.9443 37.6129,-47.1041 13.2753,-18.1598 5.7194,-40.95651 4.2501,-45.8021 -1.4694,-4.8456 0.3063,-11.8233 3.989,-19.38241 3.6826,-7.55909 15.3305,-15.22509 15.3305,-51.35209 0,-36.12709 -1.2694,-49.66149 -1.2694,-49.66149 -15.9993,-16.1257 -46.0809,-30.1933 -46.0809,-35.5613 z"
       id="path27"
       style="display:inline" />
    <path
       class="cls-1"
       d="m 405.20846,318.61522 c -9.6484,-9.7782 -23.3881,-21.8524 -27.0635,-43.5172 -4.0747,-24.01879 14.3363,-28.57399 20.5061,-4.3969 3.54,13.8719 25.1745,32.9564 25.9265,42.1381 0.5585,6.821 -9.7207,15.5543 -19.3691,5.776 z"
       id="path28"
       style="display:inline"
       inkscape:label="anterior-left-tricep" />
    <path
       class="cls-2"
       d="m 314.56476,252.10023 -39.8665,31.33318 c -11.9239,6.68831 -19.3524,24.55911 -13.5287,37.13521 l 1.6048,3.8786 c 3.1733,6.8699 14.6733,18.2411 23.8477,20.9545 0,0 9.8936,-11.5649 27.9584,-11.5649 18.0648,0 27.9583,11.5649 27.9583,11.5649 9.1745,-2.7134 20.6745,-14.0846 23.8477,-20.9545 l 1.6049,-3.8786 c 5.8236,-12.5761 -1.6049,-30.4469 -13.5287,-37.13521 l -39.8666,-31.33318 z"
       id="path29"
       style="display:inline" />
    <path
       class="cls-1"
       d="m 338.27446,164.31093 c 0,0.6342 -1.7679,21.8291 -2.2611,25.0976 -2.5198,16.6984 -13.1336,23.0014 -21.4251,31.8002 7.261,-13.119 7.5702,-38.8712 7.5702,-38.8712 3.9634,-1.7756 13.8648,-14.515 16.116,-18.0266 z"
       id="path30"
       style="display:inline" />
    <path
       class="cls-1"
       d="m 290.90206,164.31093 c 0,0.6342 1.7679,21.8291 2.2611,25.0976 2.5197,16.6984 13.1336,23.0014 21.4251,31.8002 -7.261,-13.119 -7.5702,-38.8712 -7.5702,-38.8712 -3.9634,-1.7756 -13.8648,-14.515 -16.116,-18.0266 z"
       id="path31"
       style="display:inline" />
    <path
       class="cls-1"
       d="M322.1584611092,182.3375269587s-.3092,25.7521993494-7.5702,38.871199018c-7.2531-13.1189996686-7.5702-38.871199018-7.5702-38.871199018,2.2037.9908843539,4.7165,1.5695999603,7.5702,1.5695999603s5.3665-.5787156065,7.5702-1.5695999603Z"
       id="path32" />
    <g
       id="g43"
       style="display:inline"
       inkscape:label="anterior-abs">
      <path
         class="cls-3"
         d="m 340.76346,279.89492 c 0,0 8.2047,2.6317 8.1953,2.6274 -9.711,-2.21791 -17.089,-7.1426 -20.1118,-8.9646 -0.9722,-0.5862 -2.2243,-1.2505 -3.574,-2.0775 -0.0216,-0.0128 -0.0471,-0.0268 -0.0683,-0.0393 -5.4872,-3.2478 -10.6086,4.8302 -10.6086,11.9372 0,7.107 5.8468,9.0451 8.0434,8.5909 2.1968,-0.4542 12.2755,0.58339 18.2194,3.2968 5.9441,2.71359 6.868,0.94 6.4715,-4.4579 -0.3961,-5.3977 -3.8521,-10.3802 -6.5669,-10.913 z"
         id="path36" />
      <path
         class="cls-3"
         d="m 343.20406,296.24792 c -0.0124,-0.005 -0.0242,-0.0128 -0.0364,-0.0182 -0.6647,-0.2422 -1.418,-0.5572 -2.3088,-0.9639 -4.8004,-2.19141 -12.2933,-3.2883 -16.1575,-3.3907 -3.3569,0.1138 -10.1053,2.4908 -10.1053,9.7224 0,7.2362 2.0995,15.8934 3.65,18.3486 1.5506,2.455 5.0394,2.455 10.2081,0.9045 5.1688,-1.5505 12.7924,-2.8426 16.9272,-1.9381 4.1349,0.9044 5.5564,-4.6518 3.6181,-12.6632 -1.9381,-8.0115 -3.4502,-9.0192 -5.7954,-10.0014 z"
         id="path37" />
      <path
         class="cls-3"
         d="m 346.08176,319.00182 c -0.2245,-0.009 -0.4569,-0.0361 -0.7004,-0.0893 -0.694,-0.0592 -1.6521,-0.1768 -2.7787,-0.2909 -4.2415,-0.097 -9.9886,0.9813 -14.1485,2.229 -0.9635,0.2891 -1.8482,0.504 -2.6933,0.6793 -0.0108,0.008 -0.023,0.0145 -0.034,0.0231 -4.3795,1.3649 -11.1386,3.6909 -11.1386,9.3763 0,5.6857 0.008,4.5593 0.008,8.6942 0,4.13489 4.6838,15.9862 9.9816,13.0141 5.2979,-2.9717 14.4723,-6.4606 17.9611,-7.2359 3.4888,-0.7752 5.4566,-4.015 6.4607,-14.214 0.9356,-9.5014 0.1992,-11.6619 -2.9177,-12.1859 z"
         id="path38" />
      <path
         class="cls-3"
         d="m 342.53876,345.40172 c -1.1992,0.3649 -2.7376,0.8174 -4.4283,1.3484 -4.2271,1.4791 -9.826,3.80829 -13.5328,5.8875 -4.215,3.0603 -9.9816,8.7867 -9.9816,17.8321 v 36.3483 c 0,11.0479 12.3469,1.3037 19.3008,-13.94361 6.9539,-15.24759 12.7769,-32.19659 13.2937,-38.801 0.5168,-6.60439 -0.264,-10.00639 -4.6518,-8.67169 z"
         id="path39" />
      <path
         class="cls-3"
         d="m 288.42876,279.89492 c 0,0 -8.2047,2.6317 -8.1953,2.6274 9.711,-2.21791 17.089,-7.1426 20.1118,-8.9646 0.9722,-0.5862 2.2243,-1.2505 3.574,-2.0775 0.0216,-0.0128 0.0471,-0.0268 0.0683,-0.0393 5.4872,-3.2478 10.6085,4.8302 10.6085,11.9372 0,7.107 -5.8467,9.0451 -8.0433,8.5909 -2.1968,-0.4542 -12.2755,0.58339 -18.2194,3.2968 -5.9441,2.71359 -6.868,0.94 -6.4715,-4.4579 0.3961,-5.3977 3.8521,-10.3802 6.5669,-10.913 z"
         id="path40" />
      <path
         class="cls-3"
         d="m 285.98816,296.24792 c 0.0124,-0.005 0.0242,-0.0128 0.0364,-0.0182 0.6647,-0.2422 1.418,-0.5572 2.3088,-0.9639 4.8003,-2.19141 12.2932,-3.2883 16.1575,-3.3907 3.3568,0.1138 10.1052,2.4908 10.1052,9.7224 0,7.2362 -2.0994,15.8934 -3.6499,18.3486 -1.5507,2.455 -5.0394,2.455 -10.2081,0.9045 -5.1688,-1.5505 -12.7924,-2.8426 -16.9272,-1.9381 -4.135,0.9044 -5.5564,-4.6518 -3.6181,-12.6632 1.9381,-8.0115 3.4502,-9.0192 5.7954,-10.0014 z"
         id="path41" />
      <path
         class="cls-3"
         d="m 283.11046,319.00182 c 0.2245,-0.009 0.4569,-0.0361 0.7004,-0.0893 0.694,-0.0592 1.6521,-0.1768 2.7786,-0.2909 4.2416,-0.097 9.9887,0.9813 14.1486,2.229 0.9635,0.2891 1.8481,0.504 2.6933,0.6793 0.0108,0.008 0.023,0.0145 0.034,0.0231 4.3795,1.3649 11.1386,3.6909 11.1386,9.3763 0,5.6857 -0.008,4.5593 -0.008,8.6942 0,4.13489 -4.6837,15.9862 -9.9815,13.0141 -5.298,-2.9717 -14.4723,-6.4606 -17.9612,-7.2359 -3.4887,-0.7752 -5.4565,-4.015 -6.4606,-14.214 -0.9356,-9.5014 -0.1992,-11.6619 2.9177,-12.1859 z"
         id="path42" />
      <path
         class="cls-3"
         d="m 286.65336,345.40172 c 1.1993,0.3649 2.7377,0.8174 4.4284,1.3484 4.2271,1.4791 9.826,3.80829 13.5328,5.8875 4.215,3.0603 9.9815,8.7867 9.9815,17.8321 v 36.3483 c 0,11.0479 -12.3468,1.3037 -19.3007,-13.94361 -6.9539,-15.24759 -12.7769,-32.19659 -13.2937,-38.801 -0.5169,-6.60439 0.2639,-10.00639 4.6517,-8.67169 z"
         id="path43" />
    </g>
    <path
       class="cls-1"
       d="M332.2167611092,177.8029270733c-2.366,3.6906999068-5.5068,6.9564842393-9.6723,8.8225997771-2.3161,1.0413999737-4.957,1.6495999583-7.9562,1.6495999583s-5.6401-.6081999846-7.9562-1.6495999583c-4.1738-1.8661155378-7.323-5.1402998701-9.6807-8.8391997767v-.0083999998c-5.6734-8.8891997754-6.8231-16.8733995737-6.8231-16.8733995737,0,0-6.29,1.5078838124-8.7643-10.7054997296-2.516-12.4132996864,5.5235-11.6800997049,5.5235-11.6800997049,0,0-2.5826-7.8615167531.1166-19.9998994948,2.6993-12.1383996934,14.4878-20.2777994877,27.5842-20.2777994877,13.0881,0,24.8849,8.1393997944,27.5842,20.2777994877,2.6909,12.1383827417.1083,19.9998994948.1083,19.9998994948,0,0,8.0478-.7331999815,5.5318,11.6800997049-2.4743,12.213383542-8.7643,10.7054997296-8.7643,10.7054997296,0,0-1.1497,8.0091997977-6.8315,16.8983995731Z"
       id="path44" />
    <g
       id="g46"
       inkscape:label="anterior-left-hand">
      <path
         class="cls-1"
         d="M462.2028611092,405.9514113126c-.5411-8.4336897898,14.6074-10.2233897446,14.6074-10.2233897446,7.4567,1.8951999521,16.063,1.4877999624,22.2815,5.4512998623,6.2186,3.9630898823,9.4831,4.2674998922,15.095,4.7332998804,5.6134.4567900018,4.9755,6.7134998304-1.9875,7.5123998102-6.9723.7998999798-10.7945.1627999959-15.5045-.5066999872l-.0017-.0013c.0005.0003901788.0012.0012.0018.0016,8.3497,10.8193997267,13.3967,19.2599995135,17.5546,29.7603992482,1.7412,7.0000998232-10.6198,8.8501997764-15.9112,7.7270998048-10.0039-1.7457999559-20.5343-16.9088995728-25.7707-20.9741994701-5.2891-4.4655998872-9.8236-15.0467996199-10.3647-23.480509404Z"
         id="path45" />
      <path
         class="cls-1"
         d="M496.6930611092,412.9170211338c-5.7578.198799995-13.565,2.3322999411-22.1012-3.9431999004"
         id="path46" />
    </g>
    <path
       class="cls-1"
       d="M223.4633611092,318.6152235161c9.6484-9.778199753,23.3881-21.852399448,27.0635-43.5171989007,4.0748-24.0187993932-14.3363-28.5739992782-20.5061-4.3968998889-3.5399,13.8718996496-25.1745,32.9563991675-25.9264,42.1380989355-.5586,6.8209998277,9.7206,15.5542996071,19.369,5.7759998541Z"
       id="path47"
       inkscape:label="anterior-right-tricep" />
    <g
       id="g110"
       inkscape:label="anterior-forearms">
      <path
         class="cls-1"
         d="M183.5356611092,361.9414113126c1.318-1.4192888552,2.4965-2.7841888207,3.5615-4.0907887877.0057-.0062112123.0111-.0093999998.0168-.0158999996,3.5782-4.1067998963,8.3097-4.4214998883,21.4698-7.2560998167,2.4057-.5182999869,4.5584-1.822299954,6.4747-3.5987999091h0s-4.1291,15.7368996025-15.2415,22.1974994392c-11.1127,6.4606998368-32.7179,34.4283991303-35.112,39.7964989947,0,0-1.7448-1.4828999625-5.3629-1.8542999532,0,0,14.1148-34.3241099677,24.1936-45.1781099677Z"
         id="path49" />
      <path
         class="cls-3"
         d="M199.1405611092,307.4303237986s-19.9982,11.3528997132-27.4928,30.4767992301c-7.4945,19.1239995169-19.7862,57.8208985393-19.7862,57.8208985393,0,0,3.3455,9.1108997698,11.3569,9.1108997698,0,0,10.2384-32.0435100253,20.3172-42.8975989163,10.0788-10.8540997258,10.5897-23.7082994011,10.5897-23.7082994011,0,0,14.5971-18.4150995348,8.4645-29.7866117079l-3.4493-1.016087514Z"
         id="path50" />
      <path
         class="cls-1"
         d="M445.1361611092,361.9414113126c-1.318-1.4192888552-2.4965-2.7841888207-3.5614-4.0907887877-.0057-.0062112123-.0111-.0093999998-.0168-.0158999996-3.5783-4.1067998963-8.3097-4.4214998883-21.4698-7.2560998167-2.4057-.5182999869-4.5584-1.822299954-6.4748-3.5987999091h0s4.1291,15.7368996025,15.2415,22.1974994392c11.1127,6.4606998368,32.7179,34.4283991303,35.1121,39.7964989947,0,0,1.7448-1.4828999625,5.3629-1.8542999532,0,0-14.1149-34.3241099677-24.1937-45.1781099677Z"
         id="path34" />
      <path
         class="cls-1"
         d="M434.5464611092,338.2329230205c-.7813-16.3131995879-9.9471-17.8990995478-29.338-19.6176995044l-.0041.0006s1.7237,29.1281992642,14.8838,31.9627991926c13.1601,2.8345999284,17.8915,3.1492999204,21.4698,7.2560998167.0057.0064999998.0111.0093999998.0168.0158999996-7.0789-8.6850997806-7.0282-19.6170995044-7.0283-19.6176995044Z"
         id="path33" />
      <path
         class="cls-3"
         d="M429.5312611092,307.4303237986s19.9983,11.3528997132,27.4928,30.4767992301c7.4945,19.1239995169,19.7862,57.8208985393,19.7862,57.8208985393,0,0-3.3455,9.1108997698-11.3569,9.1108997698,0,0-10.2383-32.0435100253-20.3172-42.8975989163-10.0788-10.8540997258-10.5896-23.7082994011-10.5896-23.7082994011,0,0-14.5971-18.4150995348-8.4646-29.7866117079l3.4493-1.016087514Z"
         id="path35" />
      <path
         class="cls-1"
         d="M194.1253611092,338.2329230205c.7813-16.3131995879,9.9472-17.8990995478,29.338-19.6176995044l.0042.0006s-1.7237,29.1281992642-14.8838,31.9627991926-17.8916,3.1492999204-21.4698,7.2560998167c-.0057.0064999998-.0111.0093999998-.0168.0158999996,7.0788-8.6850997806,7.0281-19.6170995044,7.0282-19.6176995044Z"
         id="path48" />
    </g>
    <g
       id="g52"
       style="display:inline"
       inkscape:label="anterior-biceps">
      <path
         class="cls-4"
         d="m 415.97846,275.09802 c -17.8586,-13.1647 -19.9395,-6.591 -19.9395,-6.591 0,0 -3.179,12.6995 6.8436,37.613 10.0226,24.9135 31.6639,32.1129 31.6639,32.1129 0,0 8.1376,-43.44851 -18.568,-63.1349 z"
         id="path51"
         style="stroke:#7992a8;stroke-width:1.585;stroke-dasharray:none;fill:#f4f6fa;fill-opacity:1" />
      <path
         class="cls-4"
         d="m 212.69346,275.09802 c 17.8585,-13.1647 19.9394,-6.591 19.9394,-6.591 0,0 3.179,12.6995 -6.8436,37.613 -10.0226,24.9135 -31.6639,32.1129 -31.6639,32.1129 0,0 -8.1375,-43.44851 18.5681,-63.1349 z"
         id="path52"
         style="display:inline;stroke:#7992a8;stroke-width:1.585;stroke-dasharray:none;fill:#f4f6fa;fill-opacity:1" />
    </g>
    <g
       id="g54"
       inkscape:label="anterior-right-hand">
      <path
         class="cls-1"
         d="M166.4689611092,405.9514113126c.5412-8.4336897898-14.6074-10.2233897446-14.6074-10.2233897446-7.4567,1.8951999521-16.0629,1.4877999624-22.2815,5.4512998623-6.2186,3.9630898823-9.4831,4.2674998922-15.0949,4.7332998804-5.6135.4567900018-4.9756,6.7134998304,1.9874,7.5123998102,6.9723.7998999798,10.7946.1627999959,15.5045-.5066999872l.0018-.0013c-.0006.0003901788-.0013.0012-.0019.0016-8.3497,10.8193997267-13.3967,19.2599995135-17.5546,29.7603992482-1.7412,7.0000998232,10.6198,8.8501997764,15.9112,7.7270998048,10.004-1.7457999559,20.5344-16.9088995728,25.7707-20.9741994701,5.2891-4.4655998872,9.8236-15.0467996199,10.3647-23.480509404Z"
         id="path53" />
      <path
         class="cls-1"
         d="M131.9788611092,412.9170211338c5.7577.198799995,13.5649,2.3322999411,22.1011-3.9431999004"
         id="path54" />
    </g>
    <g
       id="g56"
       inkscape:label="anterior-pecs">
      <path
         class="cls-3"
         d="M361.0507611092,226.1528258519c-2.9402-1.8430999534-6.1157-3.1846999195-9.5315-3.7646999049-22.8299-3.8764999021-28.6018-1.1792999702-32.6234,3.6177999086-4.0217,4.797485457-4.2998,11.2789997151-4.2998,26.0942993408s9.8857,18.8258995244,14.2509,21.4574994579c4.3584,2.6271999336,17.7599,11.716099704,34.1738,9.8203997519,16.4139-1.8959999521,19.3325-14.7990996261,23.7346-19.6757130936,0-.0002864093-.0014-.0036864092-.0014-.004-15.1309-10.5932861416-23.6105-31.7710856066-25.7032-37.5455854607Z"
         id="anterior-left-pectoralis"
         inkscape:label="anterior-left-pectoralis" />
      <path
         class="cls-3"
         d="M268.1414611092,226.1528258519c2.9401-1.8430999534,6.1157-3.1846999195,9.5314-3.7646999049,22.8299-3.8764999021,28.6019-1.1792999702,32.6235,3.6177999086,4.0217,4.797485457,4.2997,11.2789997151,4.2997,26.0942993408s-9.8856,18.8258995244-14.2508,21.4574994579c-4.3585,2.6271999336-17.7599,11.716099704-34.1738,9.8203997519-16.4139-1.8959999521-19.3325-14.7990996261-23.7347-19.6757130936,0-.0002864093.0015-.0036864092.0015-.004,15.1309-10.5932861416,23.6105-31.7710856066,25.7032-37.5455854607Z"
         id="anterior-right-pectoralis"
         inkscape:label="anterior-right-pectoralis"
         style="stroke-width:1.585;stroke-dasharray:none" />
    </g>
    <g
       id="g58"
       inkscape:label="anterior-shoulders">
      <path
         class="cls-3"
         d="M415.9784611092,275.0980246154c-14.0004-4.3968998889-20.5762-6.4866133028-25.1732-8.908099775-20.3559-10.7225135279-30.2748-41.5301989509-30.2748-41.5301989509,0,0,10.7795-9.221699767,25.209-6.336314577,14.4296,2.8853146642,41.5546,7.1831145556,30.239,56.7746133028Z"
         id="anterior-left-deltoid"
         inkscape:label="anterior-left-deltoid" />
      <path
         class="cls-3"
         d="M212.6934611092,275.0980246154c14.0003-4.3968998889,20.5761-6.4866133028,25.1732-8.908099775,20.3558-10.7225135279,30.2748-41.5301989509,30.2748-41.5301989509,0,0-10.7796-9.221699767-25.2091-6.336314577-14.4296,2.8853146642-41.5546,7.1831145556-30.2389,56.7746133028Z"
         id="anterior-right-deltoid"
         inkscape:label="anterior-right-deltoid"
         style="stroke-width:1.585;stroke-dasharray:none;fill:#f4f6fa;fill-opacity:1" />
    </g>
  </g>
  <g
     id="g109"
     inkscape:label="posterior">
    <path
       class="cls-1"
       d="M702.9086950261,689.4813499713s-5.0931998713-1.8437974732-11.1469997184,2.5495c-6.0536998471,4.3933-10.963899723,11.371-6.8289998275,17.3149,4.1348998955,5.944,12.4046996866,14.9891,16.0227995952,20.6746,0,0,12.1462996932-3.6181,11.3709997127-22.742-.7752999804-19.124-9.4177997621-17.797-9.4177997621-17.797Z"
       id="path59" />
    <path
       class="cls-1"
       d="M723.8886198015,638.4690499713s-7.4245,50.7191-4.8415,63.1238c2.5828747517,12.4047,9.5606,25.3263,3.6166,31.5287-5.9439251242,6.2023-18.3486,2.3259-21.708224726-3.1012-3.3595999151-5.4271,7.4944998107-5.9439,6.7191998303-17.0565s-5.1685751043-27.9106974079-12.4046996866-43.6749970097c-7.2360998172-15.7642996018-12.2369996909-33.3475991576-12.2369996909-33.3475991576,0,0,3.1524999204-10.1065997447,19.9701994955-10.0877997452,16.8177995751.0187999995,20.8854247777,12.6155959124,20.8854247777,12.6155959124Z"
       id="path60" />
    <path
       class="cls-1"
       d="M793.4048198015,689.4813499713s5.0932-1.8437974732,11.147,2.5495c6.0537,4.3933,10.9639,11.371,6.829,17.3149-4.1349,5.944-12.4047,14.9891-16.0228,20.6746,0,0-12.1463-3.6181-11.371-22.742.7753-19.124,9.4178-17.797,9.4178-17.797Z"
       id="path61" />
    <path
       class="cls-1"
       d="M772.4249198015,638.4690499713s7.4245,50.7191,4.8415,63.1238c-2.5829,12.4047-9.5606,25.3263-3.6166,31.5287,5.9439,6.2023,18.3486,2.3259,21.7082-3.1012,3.3597-5.4271-7.4945-5.9439-6.7192-17.0565.7753-11.1126,5.1687-27.9106974079,12.4047-43.6749970097,7.2361-15.7642996018,12.237-33.3475991576,12.237-33.3475991576,0,0-3.1525-10.1065997447-19.9702-10.0877997452-16.8178.0187999995-20.8854,12.6155959124-20.8854,12.6155959124Z"
       id="path62" />
    <g
       id="g66"
       style="display:inline"
       inkscape:label="posterior-calves">
      <path
         class="cls-3"
         d="m 704.05659,533.61216 c 0,0 -3.05589,87.60839 -0.49419,96.39499 2.56172,8.7867 12.64329,12.6632 15.48472,13.6969 2.84127,1.0338 8.7853,-10.3372 8.01,-23.7757 -0.7753,-13.4385 -4.0898,-25.7995 -5.94393,-40.83219 -1.8542,-15.0328 -6.9777,-48.0684 -17.0566,-45.484 z"
         id="path63"
         inkscape:label="calves" />
      <path
         class="cls-3"
         d="m 686.7417,577.02866 c -4.3933,10.5957 -10.3373,46.51779 -5.4271,56.07969 4.9102,9.562 10.5957,7.2361 15.24752,4.9102 4.65178,-2.3258 6.91118,-7.7599 6.46078,-16.5396 -0.4504,-8.7798 1.03369,-87.86679 1.03369,-87.86679 z"
         id="path64"
         inkscape:label="calves" />
      <paths
         class="cls-3"
         d="m 792.25692,533.61216 c 0,0 3.0559,87.60839 0.4942,96.39499 -2.5617,8.7867 -12.6433,12.6632 -15.4847,13.6969 -2.8413,1.0338 -8.7853,-10.3372 -8.01,-23.7757 0.7753,-13.4385 4.0898,-25.7995 5.944,-40.83219 1.8541,-15.0328 6.9776,-48.0684 17.0565,-45.484 z"
         id="path65"
         inkscape:label="calves" />
      <path
         class="cls-3"
         d="m 809.57182,577.02866 c 4.3933,10.5957 10.3373,46.51779 5.4271,56.07969 -4.9102,9.562 -10.5957,7.2361 -15.2475,4.9102 -4.6518,-2.3258 -6.9112,-7.7599 -6.4608,-16.5396 0.4504,-8.7798 -1.0337,-87.86679 -1.0337,-87.86679 z"
         id="path66"
         inkscape:label="calves" />
    </g>
    <g
       id="g74"
       style="display:inline">
      <path
         class="cls-3"
         d="m 738.68652,462.02646 c 0,0 -9.3035,20.8845 -10.5957,45.4598 -1.2921,24.5753 -8.26983,62.8232 -8.26983,62.8232 0,0 -16.31749,-17.7998 -15.2656,-43.91741 1.0518,-26.11769 -7.77539,-59.80179 12.9194,-78.49409 20.69493,-18.6923 21.21173,14.1285 21.21173,14.1285 z"
         id="path67" />
      <path
         class="cls-1"
         d="m 739.20342,478.56616 c -3.8765,20.93289 -4.3934,54.7875 -9.3036,71.5856 -4.9102,16.7981 -8.78663,28.9444 -8.78663,28.9444 0,0 -1.0338,-2.8428 -1.2922,-8.7867 -0.2584,-5.944 -5.5616,-38.7648 4.06763,-82.18141 3.2324,-14.57419 8.6741,-28.45029 10.7183,-31.97189 3.4421,-5.93 5.5848,15.9247 4.5965,22.41 z"
         id="path68" />
      <path
         class="cls-3"
         d="m 717.47479,447.89796 c 0,0 -10.5754,13.6117 -11.8676,52.3764 -1.29207,38.7648 -0.7753,49.619 -18.86549,76.7543 0,0 3.8765,-25.3263 1.2922,-37.731 -2.5843,-12.4048 -3.2196,-14.2864 -5.0372,-27.3938 -1.81758,-13.1074 -9.5345,-72.2642 7.78042,-73.8146 17.315,-1.5505 26.69767,9.8087 26.69767,9.8087 z"
         id="path69" />
      <path
         class="cls-1"
         d="m 691.1379,391.99116 c 0,0 -9.3734,25.0682 -11.4073,57.889 -2.034,32.82089 3.2661,62.0237 3.2661,62.0237 0,0 -3.6139,-38.4862 6.5878,-66.417 2.8859,-7.9014 34.30412,1.6795 34.30412,1.6795 z"
         id="path70" />
      <path
         class="cls-3"
         d="m 757.62702,462.02646 c 0,0 9.3035,20.8845 10.5957,45.4598 1.2922,24.5753 8.2698,62.8232 8.2698,62.8232 0,0 16.3175,-17.7998 15.2656,-43.91741 -1.0518,-26.11769 7.7754,-59.80179 -12.9194,-78.49409 -20.6948,-18.6923 -21.2117,14.1285 -21.2117,14.1285 z"
         id="path71" />
      <path
         class="cls-1"
         d="m 757.11012,478.56616 c 3.8765,20.93289 4.3934,54.7875 9.3036,71.5856 4.9102,16.7981 8.7867,28.9444 8.7867,28.9444 0,0 1.0337,-2.8428 1.2921,-8.7867 0.2584,-5.944 5.5616,-38.7648 -4.0676,-82.18141 -3.2324,-14.57419 -8.6741,-28.45029 -10.7183,-31.97189 -3.4421,-5.93 -5.5848,15.9247 -4.5965,22.41 z"
         id="path72" />
      <path
         class="cls-3"
         d="m 778.83872,447.89796 c 0,0 10.5754,13.6117 11.8676,52.3764 1.2921,38.7648 0.7753,49.619 18.8655,76.7543 0,0 -3.8765,-25.3263 -1.2922,-37.731 2.5844,-12.4048 3.2196,-14.2864 5.0372,-27.3938 1.8176,-13.1074 9.5345,-72.2642 -7.7804,-73.8146 -17.3149,-1.5505 -26.6977,9.8087 -26.6977,9.8087 z"
         id="path73" />
      <path
         class="cls-1"
         d="m 805.17562,391.99116 c 0,0 9.3734,25.0682 11.4073,57.889 2.034,32.82089 -3.2661,62.0237 -3.2661,62.0237 0,0 3.6139,-38.4862 -6.5878,-66.417 -2.8859,-7.9014 -34.3041,1.6795 -34.3041,1.6795 z"
         id="path74" />
    </g>
    <path
       class="cls-3"
       d="M725.9953198015,174.9150499713c0,5.368-30.0816245986,19.4356149883-46.0810241944,35.5613145809,0,0-1.2693999679,13.5342996581-1.2693999679,49.6613987454s11.6478997057,43.7929988937,15.3304996127,51.3520987027c3.6827245496,7.5591879709,5.4583998621,14.5367996328,3.9890998992,19.3823995104s-9.025199772,27.6423993017,4.2500998926,45.8021988429c13.2752996646,18.1596995412,33.0707247578,35.6038991006,37.6129247578,39.8679989928s7.216,2.9489999255,7.216,2.9489999255c0,0,4.9003,1.3150999668,9.4425-2.9489999255s24.3376-21.7082994516,37.6129-39.8679989928c13.2753-18.1597995412,5.7195-40.9565989653,4.2501-45.8021988429-1.4693-4.8455998776.3064-11.8232115394,3.9891-19.3823995104,3.6826-7.559099809,15.3305-15.2249996154,15.3305-51.3520987027s-1.2694-49.6613987454-1.2694-49.6613987454c-15.9994-16.1256995926-46.081-30.1933145809-46.081-35.5613145809h-44.3229Z"
       id="path75" />
    <path
       class="cls-1"
       d="M706.0721949462,359.9406607764s8.2697997911-6.7139998304,12.6630996801-10.5608997332c0,0,12.3247251751-36.4412990794,29.4213251751-36.4412990794,17.0965,0,29.4212,36.4412990794,29.4212,36.4412990794,4.3933,3.8468999028,12.6631,10.5608997332,12.6631,10.5608997332,0,0-17.8809,58.4107985244-43.4657,58.4107985244-25.5847252372,0-40.7030248552-58.4107985244-40.7030248552-58.4107985244Z"
       id="path76" />
    <path
       class="cls-1"
       d="M770.3182198015,174.9150499713c-.6922,4.3289153699-44.3229,0-44.3229,0-3.2857-12.131-2.2986-21.4330839793-2.2986-21.4330839793,0,0-6.2899251416,1.5078999619-8.7642250791-10.7053997296-2.5159999364-12.4132996864,5.5234998605-11.6801997049,5.5234998605-11.6801997049,0,0-2.5826999348-7.8614998014.1165999971-19.9997994948,2.6993252215-12.1383996934,14.4877252215-20.2778994877,27.5842252215-20.2778994877,13.0881,0,24.8849,8.1394997944,27.5841,20.2778994877,2.691,12.1382996934.1083,19.9997994948.1083,19.9997994948,0,0,8.0479-.7330999815,5.5319,11.6801997049-2.4744,12.2132996915-8.7643,10.7053997296-8.7643,10.7053997296,0,0-.6445,11.0893997199-2.2986,21.4330839793Z"
       id="path77" />
    <path
       class="cls-1"
       d="M729.8998198015,445.4868586153s8.6575,15.2474996148,9.3036,33.0792991643c0,0,4.9123-25.0671078084,5.4281-50.6522987204l-14.7317,17.5729995561Z"
       id="path78" />
    <path
       class="cls-1"
       d="M766.4137198015,445.4868586153s-8.6575,15.2474996148-9.3036,33.0792991643c0,0-4.9123-25.0671078084-5.4281-50.6522987204l14.7317,17.5729995561Z"
       id="path79" />
    <g
       id="g81"
       style="display:inline"
       inkscape:label="posterior-glutes">
      <path
         class="cls-3"
         d="m 748.15682,417.31776 c 0,10.5957 -4.3016,22.4836 -18.257,28.1691 -13.95533,5.6855 -40.31532,0 -40.31532,0 2.5839,-8.2424 -3.4811,-25.649 -3.4889,-43.3782 -0.0113,-25.6754 9.0026,-35.9887 15.4816,-40.9998 13.29659,-10.2842 23.15402,4.2641 29.87322,18.9947 6.7193,14.7306 16.7064,26.61849 16.7064,37.2142 z"
         id="posterior-left-glute"
         inkscape:label="posterior-left-glute" />
      <path
         class="cls-3"
         d="m 748.15682,417.31776 c 0,10.5957 4.3015,22.4836 18.2569,28.1691 13.9553,5.6855 40.3153,0 40.3153,0 -2.5838,-8.2424 3.4811,-25.649 3.4889,-43.3782 0.0113,-25.6754 -9.0026,-35.9887 -15.4816,-40.9998 -13.2966,-10.2842 -23.154,4.2641 -29.8732,18.9947 -6.7192,14.7306 -16.7063,26.61849 -16.7063,37.2142 z"
         id="posterior-right-glute"
         inkscape:label="posterior-right-glute" />
    </g>
    <path
       class="cls-1"
       d="M625.3761969848,306.9884621141s-15.4706996092,7.7004998055-22.1748994398,28.0030992926c-6.7041777435,20.3024885646,35.2895991085-16.6109995804,22.1748994398-28.0030992926Z"
       id="path82" />
    <path
       class="cls-3"
       d="M622.8571198015,319.2816618035l-4.1349226486,6.0342998476s-.2107999947,15.0140883202,14.4959996338,7.6362998071c14.7067996285-7.3777998136,32.2801991845-20.3322994864,19.6169995044-33.4958991538-12.6630764896-13.1635996675-20.9329994712-9.0286997719-22.7419994255-1.7925999547s-7.2360770642,21.6178994539-7.2360770642,21.6178994539Z"
       id="path83" />
    <path
       class="cls-1"
       d="M596.5839977121,400.7460499713s14.1267996431-22.1930896651,25.4977993559-28.137c11.3709997127-5.9438893648,31.0117992166-32.0455887054,33.0793227335-45.484,0,0-32.0456227596,4.9102115101-48.3268223483,31.0118108507-16.2811776517,26.1015993406-18.6135995298,37.3212990572-18.6135995298,37.3212990572l8.3632997887,5.2878900921Z"
       id="path84" />
    <path
       class="cls-1"
       d="M635.0033967416,339.1068613027c7.7529998041-5.2625998671,32.3039991839-14.4809996342,33.8545991448-34.4228113314,1.5505999608-19.9418872952-33.290099159,23.2413116139-35.6397990997,28.2682114869s1.7851999549,6.1545998445,1.7851999549,6.1545998445Z"
       id="path85" />
    <path
       class="cls-3"
       d="M588.2206979234,395.4581598791s14.9955996212-38.4254990293,46.7826988182-56.3512985764c0,0-2.8426999282-18.959499521-16.2811995887-13.7908996516-13.4384996605,5.1686998694-22.483599432,13.1696996673-27.6521993014,34.6246991253-5.1685998694,21.455099458-12.1370996934,35.5174991028-12.1370996934,35.5174991028h9.2877997654Z"
       id="path86" />
    <g
       id="g89">
      <path
         class="cls-1"
         d="M597.1974976966,403.2194596831c-.3429999913-8.4440997867-15.595599606-8.6414097118-15.595599606-8.6414097118-7.2178998177,2.6639098628-15.8195996004,3.1578098503-21.5900994546,7.7492097343-5.7704998542,4.591199884-8.985299773,5.2349998678-14.5177996332,6.2844998412-5.5349998602,1.0407999737-4.2468792013,7.1965998182,2.7613999302,7.2636998165,7.0177998227.0670999983,10.7524997284-.9658999756,15.3667208684-2.1237999463l.0016787433-.0015c-.0006.0005-.0012.0014-.0016787433.0018-7.1737210754,11.6325997061-11.3112209709,20.5541994808-14.3494208941,31.431599206-1.0002999747,7.1435998195,11.4862997098,7.6922998057,16.6314995799,6.0224913483,9.7667997533-2.7813914302,18.6553995287-18.9616910214,23.4383994079-23.5517909055,4.7935998789-4.9937998738,8.1977997929-15.990699596,7.8548998016-24.4347993827Z"
         id="path87" />
      <path
         class="cls-2"
         d="M556.4953987249,426.417959097s9.7754997531,7.3064998154,29.0579992659,5.7762998541"
         id="path88" />
      <path
         class="cls-2"
         d="M563.6221198015,413.751959417s2.137-3.5071999114,2.7306786744-4.3489094457"
         id="path89" />
    </g>
    <path
       class="cls-1"
       d="M870.9369198015,306.9884621141s15.4707,7.7004998055,22.1749,28.0030992926c6.7042,20.3024885646-35.2896-16.6109995804-22.1749-28.0030992926Z"
       id="path90" />
    <path
       class="cls-3"
       d="M873.4560198015,319.2816618035l4.1349,6.0342998476s.2108,15.0140883202-14.496,7.6362998071c-14.7068-7.3777998136-32.2802-20.3322994864-19.617-33.4958991538,12.6632-13.1635996675,20.933-9.0286997719,22.742-1.7925999547,1.809,7.2360998172,7.2361,21.6178994539,7.2361,21.6178994539Z"
       id="path91" />
    <path
       class="cls-1"
       d="M899.7292198015,400.7460499713s-14.1269-22.1930896651-25.4979-28.137c-11.371-5.9438893648-31.0118-32.0455887054-33.0793-45.484,0,0,32.0456,4.9102115101,48.3268,31.0118108507,16.2812,26.1015993406,18.6136,37.3212990572,18.6136,37.3212990572l-8.3632,5.2878900921Z"
       id="path92" />
    <path
       class="cls-1"
       d="M861.3097198015,339.1068613027c-7.753-5.2625998671-32.304-14.4809996342-33.8546-34.4228113314-1.5506-19.9418872952,33.2901,23.2413116139,35.6398,28.2682114869s-1.7852,6.1545998445-1.7852,6.1545998445Z"
       id="path93" />
    <path
       class="cls-3"
       d="M908.0924198015,395.4581598791s-14.9956-38.4254990293-46.7827-56.3512985764c0,0,2.8427-18.959499521,16.2812-13.7908996516,13.4385,5.1686998694,22.4836,13.1696996673,27.6522,34.6246991253,5.1687,21.455099458,12.1371,35.5174991028,12.1371,35.5174991028h-9.2878Z"
       id="path94" />
    <g
       id="g98">
      <path
         class="cls-3"
         d="M643.3037965319,298.1806623366s-8.5587997838-4.9693998745-12.4352996859,5.2681998669c-3.8764999021,10.2376997414-8.0113770446,15.8327996-8.0113770446,15.8327996,0,0,5.4576771091-29.370799258,10.2233769887-38.9327990165s9.9646230113-13.6039996563,25.1968993635-16.4931995833c15.2323996152-2.889199927-14.9735996217,34.3249991329-14.9735996217,34.3249991329Z"
         id="path95" />
      <path
         class="cls-1"
         d="M647.1321198015,315.1935619068s-12.6455230468-20.8486994733,8.029-50.3302987285c20.6745759086-29.4814992552,30.7626756538-13.5096996587,25.2683757926,16.5838995811-5.8859998513,32.2393991856-33.2973757926,33.7463991475-33.2973757926,33.7463991475Z"
         id="path96" />
      <path
         class="cls-3"
         d="M853.0093198015,298.1806623366s8.5588-4.9693998745,12.4353,5.2681998669c3.8765,10.2376997414,8.0114,15.8327996,8.0114,15.8327996,0,0-5.4576-29.370799258-10.2233-38.9327990165-4.7658-9.5619997584-9.9647-13.6039996563-25.197-16.4931995833-15.2324-2.889199927,14.9736,34.3249991329,14.9736,34.3249991329Z"
         id="path97" />
      <path
         class="cls-1"
         d="M849.1810198015,315.1935619068s12.6456-20.8486994733-8.029-50.3302987285c-20.6745-29.4814992552-30.7626-13.5096996587-25.2684,16.5838995811,5.886,32.2393991856,33.2974,33.7463991475,33.2974,33.7463991475Z"
         id="path98" />
    </g>
    <g
       id="g101"
       style="display:inline">
      <path
         class="cls-1"
         d="m 899.11562,403.21946 c 0.343,-8.4441 15.5956,-8.64141 15.5956,-8.64141 7.2179,2.66391 15.8196,3.15781 21.5901,7.74921 5.7705,4.5912 8.9853,5.235 14.5178,6.2845 5.535,1.0408 4.2469,7.1966 -2.7614,7.2637 -7.0177,0.0671 -10.7525,-0.9659 -15.3667,-2.1238 l -0.002,-0.002 c 5e-4,5e-4 10e-4,10e-4 0.002,0.002 7.1737,11.6326 11.3112,20.5542 14.3494,31.4316 1.0004,7.1436 -11.4863,7.6923 -16.6314,6.02249 -9.7668,-2.78139 -18.6555,-18.96169 -23.4385,-23.55179 -4.7936,-4.9938 -8.1978,-15.9907 -7.8549,-24.4348 z"
         id="path99" />
      <path
         class="cls-2"
         d="m 939.81772,426.41796 c 0,0 -9.7755,7.3065 -29.058,5.7763"
         id="path100" />
      <path
         class="cls-2"
         d="m 932.69102,413.75196 c 0,0 -2.137,-3.5072 -2.7307,-4.34891"
         id="path101" />
    </g>
    <g
       id="g103"
       style="display:inline">
      <path
         class="cls-3"
         d="m 646.1566,267.21016 c 14.0003,-4.3969 20.6814,-6.0212 25.27852,-8.4427 20.35588,-10.7226 31.53588,-31.7558 31.53588,-31.7558 0,0 -12.0406,-18.9962 -26.4702,-16.1108 -14.4295,2.8854 -41.6599,6.7178 -30.3442,56.3093 z"
         id="path102"
         style="fill:#f4f6fa;fill-opacity:1" />
      <path
         class="cls-3"
         d="m 850.15652,267.21016 c -14.0003,-4.3969 -20.6814,-6.0212 -25.2785,-8.4427 -20.3559,-10.7226 -31.5359,-31.7558 -31.5359,-31.7558 0,0 12.0406,-18.9962 26.4702,-16.1108 14.4295,2.8854 41.6599,6.7178 30.3442,56.3093 z"
         id="path103" />
    </g>
    <line
       class="cls-1"
       x1="748.1568"
       y1="312.93848"
       x2="748.1568"
       y2="417.31775"
       id="line103"
       style="display:inline" />
    <g
       id="g108"
       style="display:inline">
      <path
         class="cls-4"
         d="m 702.5553,227.75505 c -1.9399,3.37931 -10.6246,17.55021 -25.0846,27.37651 -0.3778,0.2567 -0.5864,0.7114 -0.4959,1.1592 0.313,1.5491 0.8622,2.8718 1.6702,3.847 0,0 9.1773,20.728 46.47132,17.1099 36.801,-3.5702 0.0443,-44.8305 -21.29612,-50.046 -0.4986,-0.1219 -1.0093,0.1082 -1.2649,0.55339 z"
         id="path104"
         style="fill:#f4f6fa;fill-opacity:1;stroke:#7992a8;stroke-width:2.5;stroke-dasharray:none;stroke-opacity:0.996078" />
      <path
         class="cls-4"
         d="m 697.8456,321.94616 c 2.6729,11.0621 16.59709,23.7157 20.09289,26.7531 0.4522,0.39279 1.1213,0.3834 1.5584,-0.0261 4.00723,-3.7543 22.68883,-21.709 28.56133,-35.5013 0.0675,-0.1585 0.0984,-0.3174 0.0939,-0.4896 -0.0913,-3.5605 -2.0764,-43.2043 -45.18112,-53.78321 -17.7683,-4.36079 -22.8704,-0.48139 -24.0313,0.83781 -0.1913,0.2175 -0.295,0.4979 -0.2943,0.7876 0.0828,35.7952 11.6606,43.4334 15.33,50.9654 1.7945,3.6833 3.1361,7.2285 3.8702,10.4563 z"
         id="path105"
         style="fill:#f4f6fa;fill-opacity:1;stroke:#7992a8;stroke-width:2.5;stroke-dasharray:none;stroke-opacity:1" />
      <path
         class="cls-4"
         d="m 793.75782,227.75505 c -0.2556,-0.44519 -0.7663,-0.67529 -1.2649,-0.55339 -21.3403,5.2155 -58.0971,46.4758 -21.296,50.046 37.294,3.6181 46.4713,-17.1099 46.4713,-17.1099 0.808,-0.9752 1.3572,-2.2979 1.6702,-3.847 0.0904,-0.4478 -0.1181,-0.9025 -0.496,-1.1592 -14.46,-9.8263 -23.1447,-23.9972 -25.0846,-27.37651 z"
         id="path106"
         style="fill:#f4f6fa;fill-opacity:1;stroke:#7992a8;stroke-width:2.5;stroke-dasharray:none;stroke-opacity:1" />
      <path
         class="cls-4"
         d="m 798.46752,321.94616 c -2.6728,11.0621 -16.5971,23.7157 -20.0929,26.7531 -0.4521,0.39279 -1.1213,0.3834 -1.5584,-0.0261 -4.0072,-3.7543 -22.6888,-21.709 -28.5613,-35.5013 -0.0675,-0.1585 -0.0984,-0.3174 -0.0939,-0.4896 0.0913,-3.5605 2.0764,-43.2043 45.1811,-53.78321 17.7683,-4.36079 22.8704,-0.48139 24.0313,0.83781 0.1913,0.2175 0.295,0.4979 0.2944,0.7876 -0.0828,35.7952 -11.6607,43.4334 -15.3301,50.9654 -1.7944,3.6833 -3.1361,7.2285 -3.8702,10.4563 z"
         id="path107"
         style="fill:#f4f6fa;fill-opacity:1;stroke:#7992a8;stroke-width:2.5;stroke-dasharray:none;stroke-opacity:0.843137" />
      <path
         class="cls-4"
         d="m 747.09322,310.38556 c 0.4066,0.9272 1.7201,0.9272 2.1267,0 2.0677,-4.7149 7.1666,-15.2582 15.4363,-25.6434 11.1125,-13.9553 15.5082,-42.3012 28.6859,-57.7305 9.6951,-11.35161 17.6046,-14.9503 21.1081,-16.05961 0.8374,-0.26509 1.0885,-1.33609 0.454,-1.94349 -15.7228,-15.0509 -34.6694,-21.31479 -44.5864,-34.09351 -10.2334,-13.18638 0.7996,-31.01818 -22.161,-31.01818 -22.9607,0 -9.3196,20.0153 -22.1615,31.01818 -12.48883,10.70032 -29.13682,18.96991 -44.75842,34.24821 -0.6056,0.5923 -0.3962,1.6205 0.3946,1.924 4.1767,1.6034 14.989,6.47479 21.3395,15.9244 7.99369,11.8947 17.57339,43.7752 28.68592,57.7305 8.2697,10.3852 13.3686,20.9285 15.4363,25.6434 z"
         id="path108"
         style="fill:#f4f6fa;fill-opacity:1;stroke:#7992a8;stroke-width:2.5;stroke-dasharray:none;stroke-opacity:1" />
      <line
         class="cls-4"
         x1="748.1568"
         y1="143.89687"
         x2="748.1568"
         y2="312.93848"
         id="line108"
         style="stroke:#7992a8;stroke-width:2.5;stroke-dasharray:none;stroke-opacity:1" />
    </g>
  </g>
</svg>
